<svg xmlns="http://www.w3.org/2000/svg" version="1.1" xmlns:xlink="http://www.w3.org/1999/xlink" xmlns:svgjs="http://svgjs.dev/svgjs" width="1500" height="1666" viewBox="0 0 1500 1666"><g transform="matrix(1,0,0,1,-2.524439083987545,0)"><svg viewBox="0 0 252 280" data-background-color="#f9f9f9" preserveAspectRatio="xMidYMid meet" height="1666" width="1500" xmlns="http://www.w3.org/2000/svg" xmlns:xlink="http://www.w3.org/1999/xlink"><g id="tight-bounds" transform="matrix(1,0,0,1,0.42410576610990347,0)"><svg viewBox="0 0 251.1517884677802 280" height="280" width="251.1517884677802"><g><svg viewBox="0 0 278.2696 310.23266238852864" height="280" width="251.1517884677802"><g><svg viewBox="0 0 278.2696 310.23266238852864" height="310.23266238852864" width="278.2696"><g id="textblocktransform"><svg viewBox="0 0 278.2696 310.23266238852864" height="310.23266238852864" width="278.2696" id="textblock"><g><svg viewBox="0 0 278.2696 278.2696" height="278.2696" width="278.2696"><g transform="matrix(1,0,0,1,89.94321971048298,89.94321971048298)"><svg viewBox="0 0 98.38316057903407 98.38316057903407" height="98.38316057903407" width="98.38316057903407"><g id="icon-0"><svg xmlns:rdf="http://www.w3.org/1999/02/22-rdf-syntax-ns#" xmlns="http://www.w3.org/2000/svg" xmlns:cc="http://creativecommons.org/ns#" xmlns:dc="http://purl.org/dc/elements/1.1/" version="1.1" viewBox="5 5 90 90" x="0" y="0" height="98.38316057903407" width="98.38316057903407" class="icon-jxe-0" data-fill-palette-color="accent" id="jxe-0"><path fill="#030303" d="M50 5C25.147 5 5 25.147 5 50S25.147 95 50 95 95 74.853 95 50 74.853 5 50 5M50 10C72.091 10 90 27.909 90 50S72.091 90 50 90 10 72.091 10 50 27.909 10 50 10M50 11.625C28.811 11.625 11.625 28.811 11.625 50S28.811 88.375 50 88.375 88.375 71.189 88.375 50 71.189 11.625 50 11.625M50 12.375C70.784 12.375 87.625 29.216 87.625 50S70.784 87.625 50 87.625 12.375 70.784 12.375 50 29.216 12.375 50 12.375M29.562 23.531L23.562 29.75 30.812 36.844C28.342 40.671 27.094 44.776 27.094 49.125 27.094 53.508 28.342 57.611 30.812 61.438L23.562 68.531 29.562 74.75 36.812 67.438C40.5 69.977 44.63 71.25 49.188 71.25 53.78 71.25 57.878 69.977 61.531 67.438L68.812 74.75 74.844 68.531 67.594 61.438C70.064 57.611 71.312 53.508 71.312 49.125 71.312 44.776 70.064 40.671 67.594 36.844L74.844 29.75 68.812 23.531 61.531 30.812C57.878 28.308 53.78 27.031 49.188 27.031 44.63 27.031 40.5 28.308 36.812 30.812zM49.125 35.594C52.882 35.594 56.061 36.919 58.688 39.562 61.314 42.207 62.625 45.403 62.625 49.125 62.625 52.882 61.331 56.075 58.688 58.719 56.043 61.363 52.847 62.688 49.125 62.688S42.206 61.363 39.562 58.719C36.919 56.075 35.594 52.882 35.594 49.125 35.594 45.403 36.919 42.207 39.562 39.562 42.206 36.919 45.403 35.594 49.125 35.594" data-fill-palette-color="accent"></path></svg></g></svg></g><g id="text-0"><path d="M34.635 96.369l-30.374 5.493-1.068-0.391 2.778-7.578 30.333-5.466 1.096 0.402zM33.157 87.273l-14.946 2.681-9.517-3.489 2.638-7.194zM29.261 111.028l-21.862-8.015 14.955-2.678 9.544 3.499z" fill="#030303" data-fill-palette-color="primary"></path><path d="M43.617 79.167l-22.299-16.542 4.808-6.482 22.3 16.542zM32.097 58.46l-4.96-3.679 5.623-7.58 4.96 3.679zM41.303 65.289l-4.96-3.679 4.732-6.378 4.96 3.679z" fill="#030303" data-fill-palette-color="primary"></path><path d="M47.948 41.288l-3.95-5.105 17.974-13.908 3.95 5.105zM66.765 53.672l-12.052-15.575 6.383-4.939 12.052 15.575z" fill="#030303" data-fill-palette-color="primary"></path><path d="M103.418 33.052l-6.727-26.937 7.83-1.956 6.727 26.938zM112.894 30.686l-1.496-5.992 1.606-0.401c0.729-0.182 1.276-0.339 1.641-0.471 0.371-0.134 0.628-0.301 0.77-0.501v0c0.148-0.202 0.219-0.456 0.21-0.762-0.006-0.3-0.078-0.724-0.215-1.273v0c-0.143-0.574-0.284-0.999-0.42-1.273-0.135-0.268-0.317-0.459-0.545-0.574v0c-0.374-0.181-1.239-0.102-2.594 0.237v0l-1.606 0.401-1.497-5.991 1.365-0.341c0.736-0.184 1.286-0.342 1.651-0.474 0.371-0.134 0.628-0.301 0.769-0.501v0c0.14-0.206 0.212-0.454 0.216-0.742-0.005-0.294-0.068-0.686-0.191-1.176v0c-0.131-0.523-0.263-0.915-0.397-1.176-0.139-0.253-0.318-0.435-0.537-0.545v0c-0.221-0.116-0.527-0.146-0.917-0.09-0.384 0.055-0.944 0.174-1.679 0.358v0l-1.365 0.341-1.496-5.992 4.462-1.114c5.246-1.31 8.433 0.293 9.561 4.81v0c0.475 1.904 0.46 3.433-0.047 4.588-0.5 1.153-1.512 2.126-3.035 2.917v0l0.039 0.155c1.795-0.03 3.166 0.282 4.111 0.938v0c1.079 0.779 1.88 2.214 2.401 4.305v0c0.599 2.4 0.41 4.36-0.567 5.879-0.978 1.519-2.877 2.631-5.697 3.336v0z" fill="#030303" data-fill-palette-color="primary"></path><path d="M133.243 27.137l10.611-27.137 0.687 0.044 2.462 11.247-5.706 16.366zM152.527 28.383l-1.086-4.999-6.731-0.435 2.094-6.093 3.225 0.209-3.676-16.904 7.367 0.476 7.031 28.277z" fill="#030303" data-fill-palette-color="primary"></path><path d="M176.089 10.62l2.04-5.829 20.076 7.027-1.895 5.415-0.456 0.305zM168.542 30.852l1.961-5.602 14.459-9.812 9.219 3.227-20.61 13.947zM175.548 33.304l6.381-4.309 9.144 3.2-2.041 5.829z" fill="#030303" data-fill-palette-color="primary"></path><path d="M210.086 25.342l3.536-5.063 17.438 12.179-3.284 4.703-0.522 0.171zM197.365 42.791l3.399-4.867 16.568-5.55 8.007 5.592-23.607 7.875zM203.45 47.041l7.307-2.43 7.942 5.547-3.536 5.063z" fill="#030303" data-fill-palette-color="primary"></path><path d="M220.769 60.681l27.31-10.156 0.425 0.543-6.75 9.326-16.01 6.642zM232.681 75.897l3.006-4.139-4.158-5.311 5.94-2.496 1.993 2.545 10.161-13.999 4.551 5.813-16.413 24.076z" fill="#030303" data-fill-palette-color="primary"></path><path d="M241.85 90.364l25.726-10.444 3.036 7.479-25.726 10.444zM247.464 104.193l7.409-6.841-0.604-1.488 5.722-2.323 0.514 1.266c0.315 0.776 0.584 1.349 0.805 1.719 0.224 0.376 0.471 0.638 0.74 0.788v0c0.255 0.133 0.573 0.166 0.954 0.097 0.375-0.066 0.902-0.237 1.58-0.513v0c0.672-0.273 1.171-0.519 1.498-0.737 0.334-0.222 0.545-0.469 0.636-0.743v0c0.099-0.27 0.094-0.609-0.015-1.017-0.106-0.402-0.326-1.016-0.661-1.841v0l-0.514-1.267 5.722-2.323 1.561 3.846c0.718 1.769 1.124 3.273 1.218 4.512 0.094 1.24-0.098 2.305-0.577 3.195v0c-0.449 0.821-1.134 1.53-2.054 2.126-0.923 0.59-2.168 1.203-3.733 1.839v0c-2.021 0.821-3.657 1.266-4.906 1.335v0c-1.609 0.05-2.969-0.471-4.081-1.563v0l-8.024 7.79z" fill="#030303" data-fill-palette-color="primary"></path><path d="M15.313 195.585l19.635-23.829 1.058-0.388 2.779 7.578-19.612 23.777-1.096 0.402zM22.321 201.569l9.68-11.709 9.507-3.486 2.637 7.194zM9.938 180.925l21.863-8.015-9.68 11.71-9.545 3.499z" fill="#030303" data-fill-palette-color="primary"></path><path d="M27.088 217.964l22.299-16.542 4.809 6.482-22.299 16.542zM50.246 212.946l4.96-3.679 5.623 7.58-4.96 3.679zM41.04 219.775l4.96-3.679 4.737 6.386-4.96 3.68z" fill="#030303" data-fill-palette-color="primary"></path><path d="M61.436 226.151l3.95-5.105 17.974 13.909-3.95 5.104zM54.178 247.48l12.052-15.576 6.383 4.94-12.052 15.575z" fill="#030303" data-fill-palette-color="primary"></path><path d="M98.429 271.783l6.728-26.937 7.83 1.956-6.728 26.937zM107.905 274.15l1.496-5.991 1.607 0.401c0.729 0.182 1.289 0.301 1.679 0.358 0.384 0.055 0.689 0.028 0.915-0.08v0c0.221-0.116 0.399-0.308 0.535-0.576 0.137-0.274 0.274-0.686 0.411-1.235v0c0.142-0.568 0.217-1.005 0.224-1.311 0.006-0.3-0.061-0.553-0.201-0.76v0c-0.252-0.337-1.055-0.675-2.41-1.013v0l-1.607-0.401 1.497-5.992 1.364 0.341c0.736 0.184 1.295 0.303 1.68 0.358 0.39 0.056 0.696 0.026 0.917-0.09v0c0.226-0.108 0.405-0.29 0.537-0.545 0.134-0.261 0.263-0.64 0.387-1.137v0c0.129-0.516 0.196-0.921 0.2-1.215 0.003-0.287-0.069-0.535-0.215-0.742v0c-0.142-0.2-0.399-0.367-0.77-0.501-0.365-0.132-0.915-0.29-1.65-0.474v0l-1.365-0.341 1.496-5.991 4.463 1.114c5.246 1.31 7.305 4.224 6.177 8.741v0c-0.475 1.904-1.205 3.247-2.189 4.029-0.989 0.775-2.339 1.157-4.05 1.148v0l-0.039 0.155c1.599 0.817 2.659 1.733 3.18 2.748v0c0.584 1.202 0.615 2.848 0.093 4.939v0c-0.6 2.4-1.688 4.041-3.265 4.922-1.577 0.881-3.776 0.97-6.596 0.265v0z" fill="#030303" data-fill-palette-color="primary"></path><path d="M134.567 278.27l7.031-28.277 0.687-0.045 3.889 10.826-3.553 16.975zM153.861 277.023l-1.73-4.816-6.721 0.434 1.282-6.312 3.226-0.208-5.821-16.29 7.367-0.475 10.611 27.137z" fill="#030303" data-fill-palette-color="primary"></path><path d="M168.621 252.92l-2.04-5.829 20.076-7.026 1.892 5.405-0.153 0.529zM175.339 273.443l-1.961-5.603 5.184-16.687 9.219-3.226-7.414 23.756zM182.344 270.991l2.301-7.349 9.144-3.2 2.04 5.829z" fill="#030303" data-fill-palette-color="primary"></path><path d="M197.145 241.001l-3.536-5.063 17.438-12.178 3.279 4.695-0.005 0.551zM209.146 258.953l-3.399-4.867 0.494-17.466 8.008-5.592-0.735 24.875zM215.231 254.703l0.235-7.696 7.942-5.547 3.536 5.063z" fill="#030303" data-fill-palette-color="primary"></path><path d="M236.971 236.877l-16.412-24.076 0.424-0.542 10.666 4.309 10.298 13.954zM248.89 221.654l-4.746-1.917-4.151 5.302-3.855-5.159 1.993-2.545-16.028-6.505 4.551-5.813 27.31 10.156z" fill="#030303" data-fill-palette-color="primary"></path><path d="M260.917 202.249l-25.725-10.444 3.036-7.478 25.726 10.444zM266.536 188.411l-10.09-0.263-0.608 1.498-5.713-2.32 0.514-1.266c0.315-0.776 0.519-1.376 0.612-1.798 0.101-0.426 0.112-0.787 0.031-1.085v0c-0.092-0.267-0.299-0.509-0.62-0.726-0.321-0.217-0.818-0.461-1.49-0.734v0c-0.672-0.273-1.204-0.446-1.598-0.519-0.387-0.071-0.711-0.044-0.969 0.08v0c-0.255 0.133-0.485 0.381-0.689 0.743-0.207 0.368-0.478 0.965-0.814 1.791v0l-0.514 1.266-5.722-2.323 1.561-3.845c0.721-1.775 1.479-3.139 2.276-4.094 0.79-0.957 1.671-1.586 2.641-1.889v0c0.894-0.276 1.878-0.303 2.951-0.083 1.067 0.218 2.387 0.646 3.958 1.284v0c2.021 0.821 3.505 1.639 4.452 2.454v0c1.18 1.089 1.788 2.413 1.823 3.97v0l11.194 0.011z" fill="#030303" data-fill-palette-color="primary"></path><path d="M4.004 142.435c0-5.858 4.749-10.606 10.606-10.606 5.858 0 10.606 4.749 10.606 10.606 0 5.858-4.749 10.606-10.606 10.606-5.858 0-10.606-4.749-10.606-10.606z" fill="#030303" data-fill-palette-color="primary"></path><path d="M253.864 142.435c0-5.858 4.749-10.606 10.606-10.606 5.858 0 10.606 4.749 10.607 10.606 0 5.858-4.749 10.606-10.607 10.606-5.858 0-10.606-4.749-10.606-10.606z" fill="#030303" data-fill-palette-color="primary"></path></g><g id="text-1"></g></svg></g><g transform="matrix(1,0,0,1,53.1494936,295.46854)"><svg viewBox="0 0 171.97061280000003 14.764122388528634" height="14.764122388528634" width="171.97061280000003"><g transform="matrix(1,0,0,1,0,0)"><svg width="171.97061280000003" viewBox="0.15 -36.75 547.38 47" height="14.764122388528634" data-palette-color="#030303"><path d="M25.2-20.35L25.2-20.35Q30.1-20.35 30.1-18.5L30.1-18.5Q30.1-18.1 29.8-17.6L29.8-17.6Q28.6-15.75 25.45-15.75L25.45-15.75Q23.4-15.75 21.25-16.48 19.1-17.2 18-18L18-18Q13.35-16.65 9.73-13.85 6.1-11.05 4.3-7.5L4.3-7.5Q3.35-5.6 3.35-3.8L3.35-3.8Q3.35-1 5.68 0.75 8 2.5 12.5 2.5L12.5 2.5Q13.75 2.5 15.1 2.35L15.1 2.35Q23.05 1.5 27.75-2.75L27.75-2.75Q31.7-6.25 31.7-10.1L31.7-10.1Q31.7-13.15 28.75-13.15L28.75-13.15Q25.2-13.15 20.6-9.35L20.6-9.35Q19.45-8.4 18.65-6.95 17.85-5.5 17.85-4.1 17.85-2.7 19.25-2.35L19.25-2.35Q19.75-2.15 19.75-1.85L19.75-1.85Q19.75-1.35 18.75-1.45L18.75-1.45Q16.35-1.5 16.35-4.6 16.35-7.7 19.5-10.4L19.5-10.4Q23.8-14.1 28.6-14.1L28.6-14.1Q32.2-14.1 33.15-11.85L33.15-11.85Q33.55-10.8 33.55-9.75L33.55-9.75Q33.55-5.1 28.4-1L28.4-1Q22.25 4 12.8 4L12.8 4Q6.95 4 3.55 1.83 0.15-0.35 0.15-3.85L0.15-3.85Q0.15-5.9 1.45-7.95L1.45-7.95Q6.05-15.25 17.15-18.8L17.15-18.8Q15.5-20.7 15.5-22.85 15.5-25 16.55-26.45L16.55-26.45Q18.6-29.25 22.7-31.05L22.7-31.05Q27.6-33.2 32.5-33.2L32.5-33.2Q35.35-33.2 37.08-32.27 38.8-31.35 38.8-29.43 38.8-27.5 37.38-26.18 35.95-24.85 34.4-24.85 32.85-24.85 32.85-25.6L32.85-25.6Q32.85-26.05 33.5-26.05L33.5-26.05 34.5-25.9Q35.5-25.9 36.33-26.98 37.15-28.05 37.15-29.2L37.15-29.2Q37.15-30.9 35.2-31.7L35.2-31.7Q33.95-32.2 32.85-32.2 31.75-32.2 31.3-32.15L31.3-32.15Q27-31.9 22.9-29.15L22.9-29.15Q18.1-26 18.1-22.05L18.1-22.05Q18.1-20.6 19.1-19.35L19.1-19.35Q22.3-20.35 25.2-20.35ZM19.95-18.55L19.95-18.55Q22.1-16.85 24.9-16.85 27.7-16.85 27.7-18.4L27.7-18.4Q27.7-19.1 25.2-19.1 22.7-19.1 19.95-18.55ZM52.65-2.2L52.65-2.2Q49.05 0.8 46.67 0.8 44.3 0.8 43.55-2.65L43.55-2.65Q43.3-4.05 43.2-6.85L43.2-6.85Q37.1-0.35 34.05 4.9L34.05 4.9Q33.9 5.1 33.65 5.1L33.65 5.1Q33.05 5.1 33.05 4.55L33.05 4.55Q33.05 4.4 33.15 4.3L33.15 4.3Q37.8-3.05 43.2-8.6L43.2-8.6Q43.4-15.45 43.45-16.3L43.45-16.3Q42.3-16.05 38.55-10.5L38.55-10.5Q36.7-7.7 35.3-6.2 33.9-4.7 33.62-4.48 33.35-4.25 33.07-4.25 32.8-4.25 32.8-4.5 32.8-4.75 34.4-6.53 36-8.3 38.65-12.33 41.3-16.35 42.45-17.4 43.6-18.45 44.6-18.45 45.6-18.45 46.05-18.18 46.5-17.9 46.37-17.23 46.25-16.55 46.17-16.05 46.1-15.55 46.05-14.9L46.05-14.9Q45.75-12.55 45.7-11.05L45.7-11.05Q48.15-13.4 56.75-20.7L56.75-20.7Q56.85-20.8 57.1-20.8 57.35-20.8 57.75-20.38 58.15-19.95 58.15-19.53 58.15-19.1 57.75-18.7L57.75-18.7Q56.15-17.4 52.17-14.53 48.2-11.65 45.6-9.25L45.6-9.25Q45.55-8.2 45.55-6.4 45.55-4.6 46-3.1L46-3.1Q46.6-1.15 48.2-1.15L48.2-1.15Q51.05-1.15 57-8L57-8Q57.5-8.5 57.75-8.5 58-8.5 58-8.18 58-7.85 57.6-7.4L57.6-7.4Q54.5-3.75 52.65-2.2ZM74.75-11.3L74.75-11.3Q74.75-7.25 70.12-3.63 65.5 0 62.1 0L62.1 0Q59.85 0 58.82-0.3 57.8-0.6 56.55-2.1L56.55-2.1Q55.7-1.4 54.25 1.48 52.8 4.35 52.8 6.4L52.8 6.4Q52.8 7.35 53.75 8.9L53.75 8.9Q53.85 9.15 53.6 9.33 53.35 9.5 53.22 9.5 53.1 9.5 53 9.45L53 9.45Q50.9 8.3 50.9 4.98 50.9 1.65 56.42-6.53 61.95-14.7 64.05-15.4L64.05-15.4Q64.55-15.5 64.7-15.5L64.7-15.5Q65.55-15.5 65.55-13.65L65.55-13.65Q66.05-14.15 67.6-14.6L67.6-14.6Q69.5-15.1 70.3-15.1L70.3-15.1Q72.1-15.1 73.42-14.08 74.75-13.05 74.75-11.3ZM72.2-11.8L72.2-11.8Q72.2-13.7 69.95-13.7 67.7-13.7 65.85-12.75L65.85-12.75Q65-12.35 61.15-8.35 57.3-4.35 57.3-3.2L57.3-3.2Q57.3-2.3 58.67-1.85 60.05-1.4 61.45-1.4L61.45-1.4Q64.2-1.4 68.2-4.53 72.2-7.65 72.2-11.8ZM76.69-2.5Q76.69-1 78.34-1 79.99-1 82.59-2.75 85.19-4.5 87.64-7.5L87.64-7.5Q88.24-8.3 88.59-8.3 88.94-8.3 88.94-8L88.94-8Q88.94-7.7 86.89-5.4L86.89-5.4Q81.89 0.1 78.54 0.1L78.54 0.1Q76.89 0.1 75.74-0.68 74.59-1.45 74.59-3.08 74.59-4.7 75.44-6.85L75.44-6.85Q76.89-10.25 80.09-15.4L80.09-15.4Q85.94-24.9 88.39-24.9L88.39-24.9Q88.89-24.9 89.42-24.53 89.94-24.15 89.99-23.7L89.99-23.7Q88.84-22.15 85.57-17.75 82.29-13.35 81.04-11.43 79.79-9.5 79.17-8.55 78.54-7.6 78.24-7.08 77.94-6.55 77.54-5.7L77.54-5.7Q76.69-4 76.69-2.5ZM99.94-10.6L99.94-10.6Q99.94-8.85 96.59-4.75L96.59-4.75Q92.64 0.1 89.84 0.1L89.84 0.1 89.04 0.1Q87.74 0.1 86.99-1.25L86.99-1.25Q86.39-2.2 86.39-3.35L86.39-3.35Q86.39-6.35 90.77-11.78 95.14-17.2 97.84-17.2L97.84-17.2Q100.39-17.2 100.39-14.5L100.39-14.5Q100.39-13.8 100.14-12.7L100.14-12.7Q100.19-12.55 101.09-12.55 101.99-12.55 103.84-13.5L103.84-13.5Q103.79-12.65 99.89-11.05L99.89-11.05Q99.94-10.85 99.94-10.6ZM96.69-13.2L96.69-13.2Q94.99-13.2 91.87-9.2 88.74-5.2 88.74-3.3 88.74-1.4 89.94-1.4L89.94-1.4Q92.09-1.4 95.39-5.3 98.69-9.2 98.69-10.9L98.69-10.9Q97.89-11.35 96.69-13.2ZM111.14 0.25L111.14 0.25Q107.39 0.25 107.39-3.9L107.39-3.9Q107.39-6 108.49-8.5 109.59-11 110.89-12.7L110.89-12.7Q110.64-12.65 110.24-12.65L110.24-12.65Q109.04-12.65 108.24-14.35L108.24-14.35 104.54-9.55Q101.44-5.7 100.94-5.7L100.94-5.7Q100.69-5.7 100.69-5.9L100.69-5.9Q100.69-6.4 101.54-7.35L101.54-7.35Q105.89-12.4 107.69-15.9L107.69-15.9Q108.84-20.25 110.59-20.25L110.59-20.25Q111.74-20.25 111.74-19.25 111.74-18.25 110.49-16.7L110.49-16.7 109.29-15.1Q109.29-14.05 110.84-14.05L110.84-14.05Q111.74-14.05 112.84-14.7L112.84-14.7 114.14-15.5Q114.24-15.55 114.64-15.55 115.04-15.55 115.49-15.05 115.94-14.55 115.79-14.15L115.79-14.15 112.34-9.8Q109.14-5.7 109.14-3.33 109.14-0.95 111.34-0.95L111.34-0.95Q113.64-0.95 116.99-3.4L116.99-3.4Q118.99-4.85 120.64-6.65L120.64-6.65Q122.19-8.45 122.34-8.45L122.34-8.45Q122.69-8.45 122.69-8.08 122.69-7.7 122.24-7.2L122.24-7.2 120.64-5.4Q119.29-4 117.64-2.7L117.64-2.7Q113.69 0.25 111.14 0.25ZM123.19 0.65L123.19 0.65Q122.64 0.65 122.19 0.5L122.19 0.5Q118.99-0.4 118.99-3.1L118.99-3.1Q118.99-6.6 123.39-11.2 127.79-15.8 131.29-15.8L131.29-15.8Q132.44-15.8 133.16-15.18 133.89-14.55 133.89-13.65L133.89-13.65Q133.89-10.85 129.66-8.3 125.44-5.75 122.79-5.75L122.79-5.75Q122.39-5.75 122.09-5.85L122.09-5.85Q121.34-4.5 121.34-3L121.34-3Q121.34-0.4 123.81-0.4 126.29-0.4 130.24-3.75L130.24-3.75Q133.29-6.2 135.44-8.95L135.44-8.95Q135.89-9.55 136.21-9.55 136.54-9.55 136.54-9.25 136.54-8.95 136.14-8.4L136.14-8.4Q133.44-4.85 129.64-2.1 125.84 0.65 123.19 0.65ZM132.64-13.75L132.64-13.75Q132.64-14.35 131.36-14.35 130.09-14.35 127.74-12.4L127.74-12.4Q124.59-9.8 122.84-6.95L122.84-6.95Q123.14-6.85 123.49-6.85L123.49-6.85Q125.39-6.85 128.56-8.88 131.74-10.9 132.54-13.3L132.54-13.3Q132.64-13.55 132.64-13.75ZM156.43-16.1L156.43-16.1 163.63-16.2Q163.78-16.1 163.78-16.05L163.78-16.05Q163.78-15.6 157.56-14.8 151.33-14 150.83-13.85L150.83-13.85Q149.88-13 147.33-8.78 144.78-4.55 144.78-2.6L144.78-2.6Q144.78-0.75 147.33-0.75L147.33-0.75Q148.53-0.75 150.48-1.5 152.43-2.25 153.48-2.9L153.48-2.9Q156.28-4.65 159.48-8.05L159.48-8.05Q160.18-8.75 160.43-8.75L160.43-8.75Q160.58-8.75 160.58-8.45 160.58-8.15 159.83-7.25L159.83-7.25Q157.23-4.05 153.98-2.1L153.98-2.1Q150.08 0.3 146.53 0.3L146.53 0.3Q144.98 0.3 144.01-0.38 143.03-1.05 143.03-3.1 143.03-5.15 144.83-8.72 146.63-12.3 147.58-14.05L147.58-14.05Q146.88-13.9 146.38-13.9L146.38-13.9Q144.93-13.9 144.93-15.05L144.93-15.05Q144.93-15.9 146.13-16.25L146.13-16.25Q146.28-16.25 146.58-16.3L146.58-16.3 149.48-16.3Q150.38-17.45 151.53-18.95L151.53-18.95Q152.93-20.75 153.43-20.75 153.93-20.75 154.68-20.35 155.43-19.95 155.43-19.4 155.43-18.85 153.03-16.15L153.03-16.15Q154.33-16.1 156.43-16.1ZM170.08-0.2L170.08-0.2Q167.13-0.2 167.13-3.65L167.13-3.65Q167.13-5.6 168.5-7.98 169.88-10.35 171.88-13.55L171.88-13.55Q165.48-10.35 160.28-4.1L160.28-4.1Q157.38 0.25 156.88 0.25L156.88 0.25Q155.43 0.25 155.43-0.6L155.43-0.6Q155.43-1.05 156.03-2.2L156.03-2.2Q160.88-10.85 163.38-14.85L163.38-14.85Q169.33-24.4 171.78-25.2L171.78-25.2Q171.88-25.25 171.98-25.25L171.98-25.25Q172.63-25.25 172.88-24.2L172.88-24.2Q172.73-23.15 167.68-16.6L167.68-16.6Q162.43-9.95 161.73-7.9L161.73-7.9Q163.58-9.25 168.18-12.45L168.18-12.45Q173.13-15.9 174.73-15.9 176.33-15.9 176.33-14.65L176.33-14.65Q176.33-14.45 176.3-14.38 176.28-14.3 172.83-9.65 169.38-5 169.38-2.8L169.38-2.8Q169.38-1.65 170.23-1.65L170.23-1.65Q172.93-1.75 178.33-8.15L178.33-8.15Q178.78-8.6 179-8.6 179.23-8.6 179.23-8.3L179.23-8.3Q179.23-7.3 174.28-2.9L174.28-2.9Q171.18-0.2 170.08-0.2ZM179.58 0.65L179.58 0.65Q179.03 0.65 178.58 0.5L178.58 0.5Q175.38-0.4 175.38-3.1L175.38-3.1Q175.38-6.6 179.78-11.2 184.18-15.8 187.68-15.8L187.68-15.8Q188.83-15.8 189.55-15.18 190.28-14.55 190.28-13.65L190.28-13.65Q190.28-10.85 186.05-8.3 181.83-5.75 179.18-5.75L179.18-5.75Q178.78-5.75 178.48-5.85L178.48-5.85Q177.73-4.5 177.73-3L177.73-3Q177.73-0.4 180.2-0.4 182.68-0.4 186.63-3.75L186.63-3.75Q189.68-6.2 191.83-8.95L191.83-8.95Q192.28-9.55 192.6-9.55 192.93-9.55 192.93-9.25 192.93-8.95 192.53-8.4L192.53-8.4Q189.83-4.85 186.03-2.1 182.23 0.65 179.58 0.65ZM189.03-13.75L189.03-13.75Q189.03-14.35 187.75-14.35 186.48-14.35 184.13-12.4L184.13-12.4Q180.98-9.8 179.23-6.95L179.23-6.95Q179.53-6.85 179.88-6.85L179.88-6.85Q181.78-6.85 184.95-8.88 188.13-10.9 188.93-13.3L188.93-13.3Q189.03-13.55 189.03-13.75ZM212.82-16.1L212.82-16.1 220.02-16.2Q220.17-16.1 220.17-16.05L220.17-16.05Q220.17-15.6 213.95-14.8 207.72-14 207.22-13.85L207.22-13.85Q206.27-13 203.72-8.78 201.17-4.55 201.17-2.6L201.17-2.6Q201.17-0.75 203.72-0.75L203.72-0.75Q204.92-0.75 206.87-1.5 208.82-2.25 209.87-2.9L209.87-2.9Q212.67-4.65 215.87-8.05L215.87-8.05Q216.57-8.75 216.82-8.75L216.82-8.75Q216.97-8.75 216.97-8.45 216.97-8.15 216.22-7.25L216.22-7.25Q213.62-4.05 210.37-2.1L210.37-2.1Q206.47 0.3 202.92 0.3L202.92 0.3Q201.37 0.3 200.4-0.38 199.42-1.05 199.42-3.1 199.42-5.15 201.22-8.72 203.02-12.3 203.97-14.05L203.97-14.05Q203.27-13.9 202.77-13.9L202.77-13.9Q201.32-13.9 201.32-15.05L201.32-15.05Q201.32-15.9 202.52-16.25L202.52-16.25Q202.67-16.25 202.97-16.3L202.97-16.3 205.87-16.3Q206.77-17.45 207.92-18.95L207.92-18.95Q209.32-20.75 209.82-20.75 210.32-20.75 211.07-20.35 211.82-19.95 211.82-19.4 211.82-18.85 209.42-16.15L209.42-16.15Q210.72-16.1 212.82-16.1ZM224.82 0.25L224.82 0.25Q221.07 0.25 221.07-3.9L221.07-3.9Q221.07-6 222.17-8.5 223.27-11 224.57-12.7L224.57-12.7Q224.32-12.65 223.92-12.65L223.92-12.65Q222.72-12.65 221.92-14.35L221.92-14.35 218.22-9.55Q215.12-5.7 214.62-5.7L214.62-5.7Q214.37-5.7 214.37-5.9L214.37-5.9Q214.37-6.4 215.22-7.35L215.22-7.35Q219.57-12.4 221.37-15.9L221.37-15.9Q222.52-20.25 224.27-20.25L224.27-20.25Q225.42-20.25 225.42-19.25 225.42-18.25 224.17-16.7L224.17-16.7 222.97-15.1Q222.97-14.05 224.52-14.05L224.52-14.05Q225.42-14.05 226.52-14.7L226.52-14.7 227.82-15.5Q227.92-15.55 228.32-15.55 228.72-15.55 229.17-15.05 229.62-14.55 229.47-14.15L229.47-14.15 226.02-9.8Q222.82-5.7 222.82-3.33 222.82-0.95 225.02-0.95L225.02-0.95Q227.32-0.95 230.67-3.4L230.67-3.4Q232.67-4.85 234.32-6.65L234.32-6.65Q235.87-8.45 236.02-8.45L236.02-8.45Q236.37-8.45 236.37-8.08 236.37-7.7 235.92-7.2L235.92-7.2 234.32-5.4Q232.97-4 231.32-2.7L231.32-2.7Q227.37 0.25 224.82 0.25ZM236.87 0.65L236.87 0.65Q236.32 0.65 235.87 0.5L235.87 0.5Q232.67-0.4 232.67-3.1L232.67-3.1Q232.67-6.6 237.07-11.2 241.47-15.8 244.97-15.8L244.97-15.8Q246.12-15.8 246.84-15.18 247.57-14.55 247.57-13.65L247.57-13.65Q247.57-10.85 243.34-8.3 239.12-5.75 236.47-5.75L236.47-5.75Q236.07-5.75 235.77-5.85L235.77-5.85Q235.02-4.5 235.02-3L235.02-3Q235.02-0.4 237.49-0.4 239.97-0.4 243.92-3.75L243.92-3.75Q246.97-6.2 249.12-8.95L249.12-8.95Q249.57-9.55 249.89-9.55 250.22-9.55 250.22-9.25 250.22-8.95 249.82-8.4L249.82-8.4Q247.12-4.85 243.32-2.1 239.52 0.65 236.87 0.65ZM246.32-13.75L246.32-13.75Q246.32-14.35 245.04-14.35 243.77-14.35 241.42-12.4L241.42-12.4Q238.27-9.8 236.52-6.95L236.52-6.95Q236.82-6.85 237.17-6.85L237.17-6.85Q239.07-6.85 242.24-8.88 245.42-10.9 246.22-13.3L246.22-13.3Q246.32-13.55 246.32-13.75ZM255.21-15.8L255.21-15.8Q256.56-15.8 256.56-14.75L256.56-14.75Q256.56-14.45 256.41-14.15L256.41-14.15Q251.91-7.9 251.01-4.7L251.01-4.7Q262.66-16.35 265.16-16.35L265.16-16.35Q265.41-16.4 265.61-16.4L265.61-16.4Q267.01-16.4 267.01-15.15L267.01-15.15Q267.01-14.9 266.91-14.65 266.81-14.4 264.91-11.95L264.91-11.95Q262.71-9.35 261.19-6.95 259.66-4.55 259.66-2.95 259.66-1.35 260.36-1.35L260.36-1.35Q262.56-1.35 268.01-7.4L268.01-7.4Q268.11-7.5 268.36-7.85L268.36-7.85Q269.11-8.75 269.26-8.75 269.41-8.75 269.41-8.25 269.41-7.75 268.71-6.95L268.71-6.95Q262.51 0.1 259.91 0.1L259.91 0.1Q257.46 0.1 257.46-2.6 257.46-5.3 259.46-8.8L259.46-8.8 262.66-14Q259.26-11.5 256.61-8.53 253.96-5.55 251.79-2.75 249.61 0.05 249.26 0.05L249.26 0.05Q248.51 0.05 248.09-0.58 247.66-1.2 247.66-2.13 247.66-3.05 248.31-4.6 248.96-6.15 249.96-8.35L249.96-8.35 246.96-5.2Q245.86-4.1 245.59-4.1 245.31-4.1 245.31-4.42 245.31-4.75 245.71-5.15L245.71-5.15Q247.56-7 248.91-8.7L248.91-8.7Q250.21-10.4 254.26-15.2L254.26-15.2Q254.71-15.8 255.21-15.8ZM283.71-15.15L283.71-15.15Q289.31-24.25 291.51-24.25L291.51-24.25Q291.86-24.25 292.49-24.03 293.11-23.8 293.11-23.35L293.11-23.35Q293.11-23.1 292.86-22.7L292.86-22.7Q288.86-17.8 286.91-15.35L286.91-15.35Q281.01-7.9 280.41-4.65L280.41-4.65Q280.26-3.95 280.26-3.25L280.26-3.25Q280.26-1 282.11-1L282.11-1Q285.81-1 291.76-7.85L291.76-7.85Q292.26-8.35 292.61-8.43 292.96-8.5 292.96-8.25 292.96-8 292.66-7.65L292.66-7.65Q286.86-0.7 282.36 0.1L282.36 0.1Q282.11 0.15 281.66 0.15L281.66 0.15Q280.11 0.15 279.34-0.93 278.56-2 278.56-3.25L278.56-3.25Q278.56-4.65 279.11-6.35L279.11-6.35 275.06-2.3Q272.31 0.25 270.74 0.25 269.16 0.25 268.11-0.6L268.11-0.6Q266.86-1.55 266.86-3.25L266.86-3.25Q266.86-6.9 271.96-11.98 277.06-17.05 281.31-17.05L281.31-17.05Q282.71-17.05 283.26-16.3L283.26-16.3Q283.46-16.05 283.71-15.15ZM268.96-2.65L268.96-2.65Q268.96-0.85 270.21-0.85L270.21-0.85Q272.36-0.85 277.36-6.75L277.36-6.75Q278.26-7.8 283.36-14.6L283.36-14.6Q283.01-15.2 282.16-15.2L282.16-15.2Q279.06-15.2 274.01-10.48 268.96-5.75 268.96-2.65ZM301.51-20.4Q302.26-20.4 302.93-19.93 303.61-19.45 303.61-18.8 303.61-18.15 302.98-17.68 302.36-17.2 301.61-17.2 300.86-17.2 300.23-17.75 299.61-18.3 299.61-19L299.61-19Q299.61-20.4 301.51-20.4L301.51-20.4ZM292.46 0.55L292.46 0.55Q289.91 0.55 289.91-2.75L289.91-2.75Q289.91-5.45 292.86-10.23 295.81-15 297.61-15.05L297.61-15.05Q298.11-15.05 298.73-14.65 299.36-14.25 299.36-13.85L299.36-13.85Q299.11-13.5 298.76-13.08 298.41-12.65 298.01-12.15 297.61-11.65 296.91-10.73 296.21-9.8 295.56-8.95L295.56-8.95Q291.81-4.1 291.81-2.27 291.81-0.45 293.06-0.45L293.06-0.45Q294.11-0.45 295.91-1.6L295.91-1.6Q300.11-4.2 302.56-7.3L302.56-7.3Q303.46-8.45 303.78-8.45 304.11-8.45 304.11-8.05 304.11-7.65 302.96-6.45 301.81-5.25 301.13-4.55 300.46-3.85 300.21-3.63 299.96-3.4 299.28-2.78 298.61-2.15 298.26-1.9 297.91-1.65 297.26-1.15 296.61-0.65 296.11-0.43 295.61-0.2 294.96 0.1L294.96 0.1Q293.91 0.55 292.46 0.55ZM310.01-15.8L310.01-15.8Q311.36-15.8 311.36-14.75L311.36-14.75Q311.36-14.45 311.21-14.15L311.21-14.15Q306.71-7.9 305.81-4.7L305.81-4.7Q317.46-16.35 319.96-16.35L319.96-16.35Q320.21-16.4 320.41-16.4L320.41-16.4Q321.81-16.4 321.81-15.15L321.81-15.15Q321.81-14.9 321.71-14.65 321.61-14.4 319.71-11.95L319.71-11.95Q317.51-9.35 315.98-6.95 314.46-4.55 314.46-2.95 314.46-1.35 315.16-1.35L315.16-1.35Q317.36-1.35 322.81-7.4L322.81-7.4Q322.91-7.5 323.16-7.85L323.16-7.85Q323.91-8.75 324.06-8.75 324.21-8.75 324.21-8.25 324.21-7.75 323.51-6.95L323.51-6.95Q317.31 0.1 314.71 0.1L314.71 0.1Q312.26 0.1 312.26-2.6 312.26-5.3 314.26-8.8L314.26-8.8 317.46-14Q314.06-11.5 311.41-8.53 308.76-5.55 306.58-2.75 304.41 0.05 304.06 0.05L304.06 0.05Q303.31 0.05 302.88-0.58 302.46-1.2 302.46-2.13 302.46-3.05 303.11-4.6 303.76-6.15 304.76-8.35L304.76-8.35 301.76-5.2Q300.66-4.1 300.38-4.1 300.11-4.1 300.11-4.42 300.11-4.75 300.51-5.15L300.51-5.15Q302.36-7 303.71-8.7L303.71-8.7Q305.01-10.4 309.06-15.2L309.06-15.2Q309.51-15.8 310.01-15.8ZM338.8-15.25L338.8-15.25 339.5-15.4Q340.15-15.4 340.53-15 340.9-14.6 340.9-14.38 340.9-14.15 340.85-13.88 340.8-13.6 339.4-11.35L339.4-11.35Q337.65-8.3 336.5-6.2L336.5-6.2Q332.45 1.35 330.3 4.15L330.3 4.15Q325.7 10.25 321.55 10.25L321.55 10.25Q320.1 10.25 319.03 9.03 317.95 7.8 317.9 6.3L317.9 6.3Q318.05 5.7 318.35 5.7L318.35 5.7Q318.5 5.7 318.6 6.05L318.6 6.05Q318.85 7.35 319.55 8.05 320.25 8.75 320.95 8.75L320.95 8.75Q323.8 8.75 327.05 5L327.05 5Q329.2 2.5 331.8-2.3L331.8-2.3 334.3-7.25 330.55-3.45Q326.95 0 325.63 0 324.3 0 323.1-0.9L323.1-0.9Q321.75-1.9 321.75-3.55L321.75-3.55Q321.75-7.2 326.88-12.25 332-17.3 336.2-17.3L336.2-17.3Q337.9-17.3 338.4-16.2L338.4-16.2Q338.55-15.8 338.65-15.53 338.75-15.25 338.8-15.25ZM323.85-2.95L323.85-2.95Q323.85-1.15 325.1-1.15L325.1-1.15Q328-1.15 333-7.5L333-7.5 338.3-14.8Q338-15.5 337.05-15.5L337.05-15.5Q333.95-15.5 328.9-10.73 323.85-5.95 323.85-2.95ZM370.6-0.6L370.6-0.6Q369.4 1.25 369.4 1.83 369.4 2.4 369.85 2.6L369.85 2.6Q369.85 2.7 369.02 3.23 368.2 3.75 366.75 3.75 365.3 3.75 365.3 3L365.3 3Q365.3 1.7 370.22-5.63 375.15-12.95 376.7-15.75L376.7-15.75Q380.1-21.85 380.1-25.4L380.1-25.4Q380.1-26.8 379.55-28L379.55-28Q378.7-29.8 375.45-29.8L375.45-29.8Q369.5-29.8 362.8-24.35L362.8-24.35Q357.7-20.15 354.95-15.65L354.95-15.65Q352.45-11.4 352.45-8.05L352.45-8.05Q352.45-3.25 356.9-3.15L356.9-3.15Q357.1-3.15 357.3-3.15L357.3-3.15Q363.2-3.15 366.25-7.3L366.25-7.3Q367.45-8.95 367.45-10.1 367.45-11.25 366.9-11.55L366.9-11.55Q366.85-11.6 366.85-11.75 366.85-11.9 367.15-11.9L367.15-11.9Q368.45-11.9 368.45-10.2L368.45-10.2Q368.45-9.15 367.45-7.35 366.45-5.55 363.82-3.95 361.2-2.35 357.85-2.35 354.5-2.35 352.55-4.3 350.6-6.25 350.6-9.55L350.6-9.55Q350.6-17.35 361.3-25.95L361.3-25.95Q364-28.1 368.32-29.55 372.65-31 376.17-31 379.7-31 381.15-29.68 382.6-28.35 382.6-26L382.6-26Q382.6-20.3 375.7-9.85L375.7-9.85Q377.25-11.8 380.75-14.8L380.75-14.8Q393.2-25.25 402.15-28.55L402.15-28.55Q402.6-28.75 403.15-28.75L403.15-28.75Q405.05-28.75 405.55-26.6L405.55-26.6Q405.8-25.75 403.15-23.05L403.15-23.05Q396.9-16.65 392.55-9.05 388.2-1.45 388.2 1.85L388.2 1.85Q388.2 2.65 388.5 2.98 388.8 3.3 389.45 3.18 390.1 3.05 392.17 2.15 394.25 1.25 394.9 1.1L394.9 1.1Q395.15 1.2 395.15 1.35L395.15 1.35Q395.15 2.1 392.52 3.45 389.9 4.8 388.6 4.8 387.3 4.8 386.95 4.35L386.95 4.35Q386.05 3.1 386.05 1.2L386.05 1.2Q386.05-3.1 390.65-11.15L390.65-11.15Q393.6-16.2 399.75-24.75L399.75-24.75Q393.1-24.15 382.55-14.25L382.55-14.25Q374.15-6.3 370.6-0.6ZM417.15-24.45L417.15-24.45Q417.15-22.9 416.25-22.9L416.25-22.9Q416-22.9 415.75-23.3L415.75-23.3Q415.3-24.1 414.25-24.1L414.25-24.1Q411.95-24.1 409.95-20.8L409.95-20.8Q409.55-20.15 407.45-16.1L407.45-16.1 408.05-16.1Q413.5-16.1 415.3-16.25L415.3-16.25Q415.5-16.2 415.5-16.05L415.5-16.05Q415.5-15.65 411.95-14.95L411.95-14.95Q408.6-14.4 406.45-14L406.45-14Q404.9-10.8 402.7-6.4L402.7-6.4Q398.2 2 396.75 4.05L396.75 4.05Q392.4 10.25 388.25 10.25L388.25 10.25Q386.8 10.25 385.72 9.03 384.65 7.8 384.6 6.3L384.6 6.3Q384.75 5.7 385.05 5.7L385.05 5.7Q385.2 5.7 385.25 6.05L385.25 6.05Q385.55 7.35 386.25 8.05 386.95 8.75 387.7 8.75L387.7 8.75Q391.95 8.75 395.45 3.5L395.45 3.5Q397.45 0.5 400.9-7.3L400.9-7.3 403.6-13.8Q398.6-13.85 398.6-15L398.6-15Q398.6-15.5 399.07-15.85 399.55-16.2 399.9-16.2L399.9-16.2 404.6-16.1Q409.5-27 413.6-27L413.6-27Q415.15-27 416.75-25.5L416.75-25.5Q417.15-25.1 417.15-24.45ZM421.89-16.1L421.89-16.1 429.09-16.2Q429.24-16.1 429.24-16.05L429.24-16.05Q429.24-15.6 423.02-14.8 416.79-14 416.29-13.85L416.29-13.85Q415.34-13 412.79-8.78 410.24-4.55 410.24-2.6L410.24-2.6Q410.24-0.75 412.79-0.75L412.79-0.75Q413.99-0.75 415.94-1.5 417.89-2.25 418.94-2.9L418.94-2.9Q421.74-4.65 424.94-8.05L424.94-8.05Q425.64-8.75 425.89-8.75L425.89-8.75Q426.04-8.75 426.04-8.45 426.04-8.15 425.29-7.25L425.29-7.25Q422.69-4.05 419.44-2.1L419.44-2.1Q415.54 0.3 411.99 0.3L411.99 0.3Q410.44 0.3 409.47-0.38 408.49-1.05 408.49-3.1 408.49-5.15 410.29-8.72 412.09-12.3 413.04-14.05L413.04-14.05Q412.34-13.9 411.84-13.9L411.84-13.9Q410.39-13.9 410.39-15.05L410.39-15.05Q410.39-15.9 411.59-16.25L411.59-16.25Q411.74-16.25 412.04-16.3L412.04-16.3 414.94-16.3Q415.84-17.45 416.99-18.95L416.99-18.95Q418.39-20.75 418.89-20.75 419.39-20.75 420.14-20.35 420.89-19.95 420.89-19.4 420.89-18.85 418.49-16.15L418.49-16.15Q419.79-16.1 421.89-16.1ZM434.49-1.8L432.89-0.75Q431.44 0.1 429.32 0.1 427.19 0.1 426.07-1.3 424.94-2.7 424.14-5.75L424.14-5.75Q423.24-4.85 422.89-4.85L422.89-4.85Q422.64-4.85 422.64-5.2 422.64-5.55 422.89-5.8L422.89-5.8Q424.54-7.85 428.49-11.7L428.49-11.7 434.79-17.6Q437.49-20.15 437.99-20.15L437.99-20.15Q439.59-20.15 439.59-18.95L439.59-18.95Q439.59-18.35 439.12-17.78 438.64-17.2 438.42-16.88 438.19-16.55 437.94-16.25L437.94-16.25Q437.04-14.7 436.12-9.85 435.19-5 434.69-3.1L434.69-3.1Q438.84-3.15 443.24-8.5L443.24-8.5Q443.74-9 443.99-9 444.24-9 444.24-8.68 444.24-8.35 443.79-7.8L443.79-7.8Q440.89-4.4 438.39-3.05L438.39-3.05Q436.89-2.3 434.49-1.8L434.49-1.8ZM426.14-6.3L426.14-6.3Q426.14-4.6 427.27-3.53 428.39-2.45 429.79-2.45 431.19-2.45 431.94-3L431.94-3Q432.94-3.55 433.92-7.6 434.89-11.65 435.09-14.75L435.09-14.75 435.29-16.45Q432.54-14.4 429.42-11.15 426.29-7.9 426.19-6.85L426.19-6.85Q426.14-6.55 426.14-6.3ZM465.69 2.3L465.69 2.3Q465.69 0.9 471.44-8.55L471.44-8.55Q467.34-8.55 465.99-8.2L465.99-8.2Q463.74-7.65 462.64-5.95L462.64-5.95Q462.24-5.4 461.96-5.35 461.69-5.3 461.69-5.58 461.69-5.85 461.89-6.05L461.89-6.05Q463.79-8.6 465.64-9.55 467.49-10.5 471.49-10.5L471.49-10.5Q472.09-10.5 472.69-10.5L472.69-10.5Q475.74-15.15 481.24-24.3L481.24-24.3Q483.29-28.15 483.29-30.55L483.29-30.55Q483.29-34.4 478.59-34.45L478.59-34.45Q478.29-34.45 478.04-34.45L478.04-34.45Q471.64-34.45 466.39-31.25 461.14-28.05 458.09-23.3 455.04-18.55 455.04-14.75L455.04-14.75Q455.04-10.1 459.39-10.1L459.39-10.1Q462.84-10.1 465.29-13.15 467.74-16.2 467.74-18.95L467.74-18.95Q467.74-20.5 466.94-21.5L466.94-21.5Q466.84-21.6 466.84-21.75L466.84-21.75Q466.84-22.1 467.24-22.1L467.24-22.1Q467.44-22.1 467.54-21.95L467.54-21.95Q468.54-20.65 468.54-18.85L468.54-18.85Q468.54-15.8 466.04-12.63 463.54-9.45 460.79-9.1L460.79-9.1Q459.94-8.95 459.14-8.95L459.14-8.95Q455.94-8.95 454.19-11L454.19-11Q452.49-12.85 452.49-16L452.49-16Q452.49-17.3 452.79-18.65L452.79-18.65Q454.29-25.4 461.46-30.45 468.64-35.5 477.59-35.5L477.59-35.5Q481.04-35.5 483.51-34.02 485.99-32.55 485.99-29.9 485.99-27.25 484.14-24.3L484.14-24.3 475.09-10.4Q476.69-10.35 480.81-9.93 484.94-9.5 487.01-9.5 489.09-9.5 489.79-9.55L489.79-9.55 491.69-12.7Q496.54-20.85 502.91-27.93 509.29-35 514.04-36.7L514.04-36.7Q514.19-36.75 514.34-36.75L514.34-36.75Q514.69-36.75 514.69-36.35L514.69-36.35Q514.69-36.2 514.54-36.1L514.54-36.1Q511.34-34.3 505.36-27.38 499.39-20.45 495.04-13.15L495.04-13.15 493.09-9.85Q495.39-10.15 496.39-11L496.39-11Q496.59-11.15 496.74-10.83 496.89-10.5 496.69-10.35L496.69-10.35Q495.19-9.2 492.44-8.7L492.44-8.7Q488.94-2.2 488.94 0.45L488.94 0.45Q488.94 2.15 490.39 2.15L490.39 2.15Q491.39 2.15 492.71 1.48 494.04 0.8 494.49 0.33 494.94-0.15 495.04-0.15 495.14-0.15 495.09 0.18 495.04 0.5 494.89 0.7L494.89 0.7Q494.04 1.5 492.34 2.4 490.64 3.3 489.59 3.3 488.54 3.3 488.04 2.95L488.04 2.95Q486.44 1.9 486.44-0.7 486.44-3.3 489.09-8.3L489.09-8.3Q487.24-8.15 485.64-8.15L485.64-8.15Q485.09-8.15 473.89-8.5L473.89-8.5Q470.34-2.9 468.19 1.7L468.19 1.7Q467.54 3.05 466.61 3.05 465.69 3.05 465.69 2.3ZM501.63 0.65L501.63 0.65Q501.08 0.65 500.63 0.5L500.63 0.5Q497.43-0.4 497.43-3.1L497.43-3.1Q497.43-6.6 501.83-11.2 506.23-15.8 509.73-15.8L509.73-15.8Q510.88-15.8 511.61-15.18 512.33-14.55 512.33-13.65L512.33-13.65Q512.33-10.85 508.11-8.3 503.88-5.75 501.23-5.75L501.23-5.75Q500.83-5.75 500.53-5.85L500.53-5.85Q499.78-4.5 499.78-3L499.78-3Q499.78-0.4 502.26-0.4 504.73-0.4 508.68-3.75L508.68-3.75Q511.73-6.2 513.88-8.95L513.88-8.95Q514.33-9.55 514.66-9.55 514.98-9.55 514.98-9.25 514.98-8.95 514.58-8.4L514.58-8.4Q511.88-4.85 508.08-2.1 504.28 0.65 501.63 0.65ZM511.08-13.75L511.08-13.75Q511.08-14.35 509.81-14.35 508.53-14.35 506.18-12.4L506.18-12.4Q503.03-9.8 501.28-6.95L501.28-6.95Q501.58-6.85 501.93-6.85L501.93-6.85Q503.83-6.85 507.01-8.88 510.18-10.9 510.98-13.3L510.98-13.3Q511.08-13.55 511.08-13.75ZM522.13 0.25L522.13 0.25Q518.38 0.25 518.38-3.9L518.38-3.9Q518.38-6 519.48-8.5 520.58-11 521.88-12.7L521.88-12.7Q521.63-12.65 521.23-12.65L521.23-12.65Q520.03-12.65 519.23-14.35L519.23-14.35 515.53-9.55Q512.43-5.7 511.93-5.7L511.93-5.7Q511.68-5.7 511.68-5.9L511.68-5.9Q511.68-6.4 512.53-7.35L512.53-7.35Q516.88-12.4 518.68-15.9L518.68-15.9Q519.83-20.25 521.58-20.25L521.58-20.25Q522.73-20.25 522.73-19.25 522.73-18.25 521.48-16.7L521.48-16.7 520.28-15.1Q520.28-14.05 521.83-14.05L521.83-14.05Q522.73-14.05 523.83-14.7L523.83-14.7 525.13-15.5Q525.23-15.55 525.63-15.55 526.03-15.55 526.48-15.05 526.93-14.55 526.78-14.15L526.78-14.15 523.33-9.8Q520.13-5.7 520.13-3.33 520.13-0.95 522.33-0.95L522.33-0.95Q524.63-0.95 527.98-3.4L527.98-3.4Q529.98-4.85 531.63-6.65L531.63-6.65Q533.18-8.45 533.33-8.45L533.33-8.45Q533.68-8.45 533.68-8.08 533.68-7.7 533.23-7.2L533.23-7.2 531.63-5.4Q530.28-4 528.63-2.7L528.63-2.7Q524.68 0.25 522.13 0.25ZM534.18 0.65L534.18 0.65Q533.63 0.65 533.18 0.5L533.18 0.5Q529.98-0.4 529.98-3.1L529.98-3.1Q529.98-6.6 534.38-11.2 538.78-15.8 542.28-15.8L542.28-15.8Q543.43-15.8 544.15-15.18 544.88-14.55 544.88-13.65L544.88-13.65Q544.88-10.85 540.65-8.3 536.43-5.75 533.78-5.75L533.78-5.75Q533.38-5.75 533.08-5.85L533.08-5.85Q532.33-4.5 532.33-3L532.33-3Q532.33-0.4 534.8-0.4 537.28-0.4 541.23-3.75L541.23-3.75Q544.28-6.2 546.43-8.95L546.43-8.95Q546.88-9.55 547.2-9.55 547.53-9.55 547.53-9.25 547.53-8.95 547.13-8.4L547.13-8.4Q544.43-4.85 540.63-2.1 536.83 0.65 534.18 0.65ZM543.63-13.75L543.63-13.75Q543.63-14.35 542.35-14.35 541.08-14.35 538.73-12.4L538.73-12.4Q535.58-9.8 533.83-6.95L533.83-6.95Q534.13-6.85 534.48-6.85L534.48-6.85Q536.38-6.85 539.55-8.88 542.73-10.9 543.53-13.3L543.53-13.3Q543.63-13.55 543.63-13.75Z" opacity="1" transform="matrix(1,0,0,1,0,0)" fill="#030303" class="slogan-text-1" data-fill-palette-color="secondary" id="text-1"></path></svg></g></svg></g></svg></g></svg></g></svg></g><defs></defs></svg><rect width="251.1517884677802" height="280" fill="none" stroke="none" visibility="hidden"></rect></g></svg></g></svg>