<svg xmlns="http://www.w3.org/2000/svg" enable-background="new 0 0 512 512" viewBox="0 0 512 512" id="wallet"><linearGradient id="a" x1="40.937" x2="452.693" y1="50.143" y2="461.899" gradientTransform="matrix(1 0 0 -1 0 512)" gradientUnits="userSpaceOnUse"><stop offset="0" stop-color="#be53ff"></stop><stop offset="1" stop-color="#4958ff"></stop></linearGradient><path fill="url(#a)" d="M445.323,256c0,8.221-6.69,14.909-14.912,14.909c-8.221,0-14.909-6.688-14.909-14.909s6.688-14.909,14.909-14.909C438.633,241.091,445.323,247.779,445.323,256z M512,222.081v67.839c0,10.507-8.534,19.04-19.04,19.04H430.4c-29.227,0-52.96-23.787-52.96-52.96s23.733-52.96,52.96-52.96h62.56C503.467,203.04,512,211.573,512,222.081z M455.99,256c0-14.101-11.474-25.576-25.578-25.576c-14.101,0-25.576,11.474-25.576,25.576c0,14.101,11.474,25.576,25.576,25.576C444.516,281.576,455.99,270.101,455.99,256z M366.774,256c0,35.094,28.534,63.626,63.627,63.626h62.56c0.213,0,0.427,0,0.64-0.054v84.534c0,22.506-18.293,40.799-40.799,40.799l-412.055-0.106C18.293,444.799,0,426.56,0,404.106V107.84c0-22.453,18.293-40.746,40.747-40.746h412.054c22.506,0,40.799,18.293,40.799,40.746v84.587c-0.213-0.054-0.427-0.054-0.64-0.054H430.4C395.307,192.374,366.774,220.907,366.774,256z M222.247,310.987c0-8.823-7.178-16-16-16H63.994c-8.823,0-16,7.177-16,16v69.838c0,8.818,7.174,15.998,15.998,16l142.25,0.019c0.003,0,0.005,0,0.008,0c8.831,0,15.998-7.149,15.998-16v-69.857H222.247z M211.581,310.987v69.857c0,2.971-2.408,5.334-5.334,5.334c0,0,0,0-0.003,0l-142.25-0.019c-2.94,0-5.334-2.394-5.334-5.334v-69.838c0-2.94,2.394-5.334,5.334-5.334h142.253C209.187,305.654,211.581,308.047,211.581,310.987z M91.377,326.701c0-2.945-2.388-5.334-5.334-5.334c-2.945,0-5.334,2.388-5.334,5.334v38.433c0,2.945,2.388,5.334,5.334,5.334c2.945,0,5.334-2.388,5.334-5.334V326.701z M124.096,326.701c0-2.945-2.388-5.334-5.334-5.334c-2.945,0-5.334,2.388-5.334,5.334v38.433c0,2.945,2.388,5.334,5.334,5.334c2.945,0,5.334-2.388,5.334-5.334V326.701z M156.812,326.701c0-2.945-2.388-5.334-5.334-5.334c-2.945,0-5.334,2.388-5.334,5.334v38.433c0,2.945,2.388,5.334,5.334,5.334c2.945,0,5.334-2.388,5.334-5.334V326.701z M189.529,326.701c0-2.945-2.388-5.334-5.334-5.334c-2.945,0-5.334,2.388-5.334,5.334v38.433c0,2.945,2.388,5.334,5.334,5.334c2.945,0,5.334-2.388,5.334-5.334V326.701z"></path></svg>