<svg width="189" height="138" viewBox="0 0 189 138" fill="none" xmlns="http://www.w3.org/2000/svg">
<path d="M0 6.00002V0.400024H40L117.2 132.2V138H77.4L0 6.00002ZM79.2 50.6V0.400024H117.2V115.6L79.2 50.6ZM0 22.6L38 87.6V138H0V22.6Z" fill="white"/>
<path d="M124.6 107.4H132.8C136.533 107.4 139.333 107.333 141.2 107.2C143.2 106.933 144.667 106.4 145.6 105.6C146.533 104.8 147.133 103.667 147.4 102.2C147.8 100.733 148 98.6 148 95.8C148 92.867 147.8 90.667 147.4 89.2C147.133 87.733 146.533 86.6 145.6 85.8C144 84.467 139.733 83.8 132.8 83.8H124.6V53.2H131.6C135.333 53.2 138.133 53.133 140 53C142 52.733 143.467 52.2 144.4 51.4C145.333 50.6 145.933 49.533 146.2 48.2C146.6 46.733 146.8 44.733 146.8 42.2C146.8 39.533 146.6 37.533 146.2 36.2C145.933 34.733 145.333 33.6 144.4 32.8C143.467 32 142 31.533 140 31.4C138.133 31.133 135.333 31 131.6 31H124.6V0.400024H147.4C174.2 0.400024 187.6 11.933 187.6 35C187.6 44.733 185.667 52.067 181.8 57C178.067 61.933 172.067 65.4 163.8 67.4V68.2C172.467 70.2 178.667 73.333 182.4 77.6C186.667 82.667 188.8 90.533 188.8 101.2C188.8 113.467 185.533 122.667 179 128.8C172.467 134.933 162 138 147.6 138H124.6V107.4Z" fill="white"/>
</svg>
