<svg width="40" height="40" viewBox="0 0 40 40" fill="none" xmlns="http://www.w3.org/2000/svg">
<path d="M28.3333 22.3333V27.3333C28.3333 34 25.6667 36.6667 19 36.6667H12.6667C6 36.6667 3.33334 34 3.33334 27.3333V21C3.33334 14.3333 6 11.6667 12.6667 11.6667H17.6667" stroke="#292D32" stroke-width="1.5" stroke-linecap="round" stroke-linejoin="round"/>
<path d="M28.3333 22.3333H23C19 22.3333 17.6667 21 17.6667 17V11.6667L28.3333 22.3333Z" stroke="#292D32" stroke-width="1.5" stroke-linecap="round" stroke-linejoin="round"/>
<path d="M19.3333 3.33334H26" stroke="#292D32" stroke-width="1.5" stroke-linecap="round" stroke-linejoin="round"/>
<path d="M11.6667 8.33334C11.6667 5.56667 13.9 3.33334 16.6667 3.33334H21.0333" stroke="#292D32" stroke-width="1.5" stroke-linecap="round" stroke-linejoin="round"/>
<path d="M36.6667 13.3333V23.65C36.6667 26.2333 34.5667 28.3333 31.9833 28.3333" stroke="#292D32" stroke-width="1.5" stroke-linecap="round" stroke-linejoin="round"/>
<path d="M36.6667 13.3333H31.6667C27.9167 13.3333 26.6667 12.0833 26.6667 8.33334V3.33334L36.6667 13.3333Z" stroke="#292D32" stroke-width="1.5" stroke-linecap="round" stroke-linejoin="round"/>
</svg>
