<svg width="40" height="40" viewBox="0 0 40 40" fill="none" xmlns="http://www.w3.org/2000/svg">
<path d="M18.3333 3.33333H15C6.66667 3.33333 3.33333 6.66667 3.33333 15V25C3.33333 33.3333 6.66667 36.6667 15 36.6667H25C33.3333 36.6667 36.6667 33.3333 36.6667 25V21.6667" stroke="#292D32" stroke-width="1.5" stroke-linecap="round" stroke-linejoin="round"/>
<path d="M26.7333 5.03333L13.6 18.1667C13.1 18.6667 12.6 19.65 12.5 20.3667L11.7833 25.3833C11.5167 27.2 12.8 28.4667 14.6167 28.2167L19.6333 27.5C20.3333 27.4 21.3167 26.9 21.8333 26.4L34.9667 13.2667C37.2333 11 38.3 8.36667 34.9667 5.03333C31.6333 1.7 29 2.76667 26.7333 5.03333Z" stroke="#292D32" stroke-width="1.5" stroke-miterlimit="10" stroke-linecap="round" stroke-linejoin="round"/>
<path d="M24.85 6.91667C25.9667 10.9 29.0833 14.0167 33.0833 15.15" stroke="#292D32" stroke-width="1.5" stroke-miterlimit="10" stroke-linecap="round" stroke-linejoin="round"/>
</svg>
