<svg width="21" height="20" viewBox="0 0 21 20" fill="none" xmlns="http://www.w3.org/2000/svg">
<path d="M10.1922 0C4.66714 0 0.192139 4.58819 0.192139 10.2529C0.192139 14.7899 3.05464 18.6219 7.02964 19.9804C7.52964 20.0701 7.71714 19.7625 7.71714 19.4934C7.71714 19.2499 7.70464 18.4425 7.70464 17.5838C5.19214 18.058 4.54214 16.9558 4.34214 16.3791C4.22964 16.0843 3.74214 15.1743 3.31714 14.9308C2.96714 14.7386 2.46714 14.2644 3.30464 14.2516C4.09214 14.2388 4.65464 14.9949 4.84214 15.3025C5.74214 16.8533 7.17964 16.4175 7.75464 16.1484C7.84214 15.4819 8.10464 15.0334 8.39216 14.777C6.16714 14.5207 3.84214 13.6364 3.84214 9.71466C3.84214 8.59965 4.22964 7.67689 4.86714 6.95918C4.76714 6.70286 4.41714 5.65193 4.96714 4.24215C4.96714 4.24215 5.80464 3.97301 7.71714 5.29308C8.51716 5.06239 9.36716 4.94704 10.2172 4.94704C11.0672 4.94704 11.9172 5.06239 12.7172 5.29308C14.6297 3.9602 15.4672 4.24215 15.4672 4.24215C16.0172 5.65193 15.6672 6.70286 15.5672 6.95918C16.2047 7.67689 16.5922 8.58684 16.5922 9.71466C16.5922 13.6492 14.2547 14.5207 12.0297 14.777C12.3922 15.0975 12.7047 15.7126 12.7047 16.6738C12.7047 18.0452 12.6922 19.1474 12.6922 19.4934C12.6922 19.7625 12.8797 20.0829 13.3797 19.9804C17.4502 18.5715 20.1911 14.6579 20.1922 10.2529C20.1922 4.58819 15.7172 0 10.1922 0Z" fill="#38BDF8"/>
</svg>
