<svg width="21" height="20" viewBox="0 0 21 20" fill="none" xmlns="http://www.w3.org/2000/svg">
<path d="M11.2193 0C12.3447 0.00186 12.915 0.00782002 13.4078 0.02249L13.6019 0.0288301C13.8261 0.0368 14.0473 0.0467999 14.314 0.0592999C15.3781 0.10847 16.104 0.2768 16.7415 0.5243C17.4006 0.77847 17.9573 1.1218 18.5131 1.67764C19.0681 2.23347 19.4115 2.7918 19.6665 3.4493C19.9131 4.08597 20.0815 4.81264 20.1315 5.8768C20.1434 6.14347 20.153 6.36467 20.1609 6.58891L20.1672 6.783C20.1818 7.27574 20.1885 7.84613 20.1906 8.97157L20.1914 9.71717C20.1915 9.80827 20.1915 9.90227 20.1915 9.99927L20.1914 10.2814L20.1908 11.0271C20.1889 12.1525 20.183 12.7229 20.1683 13.2156L20.1619 13.4097C20.154 13.634 20.144 13.8552 20.1315 14.1218C20.0823 15.186 19.9131 15.9118 19.6665 16.5493C19.4123 17.2085 19.0681 17.7652 18.5131 18.321C17.9573 18.876 17.3981 19.2193 16.7415 19.4743C16.104 19.721 15.3781 19.8893 14.314 19.9393C14.0473 19.9512 13.8261 19.9609 13.6019 19.9687L13.4078 19.975C12.915 19.9897 12.3447 19.9963 11.2193 19.9985L10.4736 19.9993C10.3825 19.9993 10.2885 19.9993 10.1915 19.9993H9.90936L9.16366 19.9986C8.03826 19.9968 7.46788 19.9908 6.97513 19.9761L6.78105 19.9698C6.5568 19.9618 6.3356 19.9518 6.06894 19.9393C5.00477 19.8902 4.27977 19.721 3.64144 19.4743C2.9831 19.2202 2.4256 18.876 1.86977 18.321C1.31394 17.7652 0.971439 17.206 0.716439 16.5493C0.468939 15.9118 0.301439 15.186 0.251439 14.1218C0.239559 13.8552 0.229869 13.634 0.222019 13.4097L0.215729 13.2156C0.201099 12.7229 0.194429 12.1525 0.192269 11.0271L0.192139 8.97157C0.193999 7.84613 0.199949 7.27574 0.214619 6.783L0.220969 6.58891C0.228939 6.36467 0.238939 6.14347 0.251439 5.8768C0.300599 4.8118 0.468939 4.0868 0.716439 3.4493C0.970599 2.79097 1.31394 2.23347 1.86977 1.67764C2.4256 1.1218 2.98394 0.7793 3.64144 0.5243C4.27894 0.2768 5.00394 0.1093 6.06894 0.0592999C6.3356 0.0474299 6.5568 0.0377401 6.78105 0.0298901L6.97513 0.0235999C7.46788 0.00895986 8.03826 0.00228994 9.16366 0.000129938L11.2193 0ZM10.1915 4.9993C7.42854 4.9993 5.19144 7.23883 5.19144 9.99927C5.19144 12.7622 7.43097 14.9993 10.1915 14.9993C12.9544 14.9993 15.1915 12.7598 15.1915 9.99927C15.1915 7.2364 12.9519 4.9993 10.1915 4.9993ZM10.1915 6.9993C11.8484 6.9993 13.1915 8.34197 13.1915 9.99927C13.1915 11.6562 11.8488 12.9993 10.1915 12.9993C8.53456 12.9993 7.19144 11.6567 7.19144 9.99927C7.19144 8.34237 8.53406 6.9993 10.1915 6.9993ZM15.4415 3.4993C14.7522 3.4993 14.1915 4.05921 14.1915 4.74845C14.1915 5.4377 14.7514 5.99847 15.4415 5.99847C16.1307 5.99847 16.6915 5.43857 16.6915 4.74845C16.6915 4.05921 16.1298 3.49844 15.4415 3.4993Z" fill="#38BDF8"/>
</svg>
