<svg width="21" height="20" viewBox="0 0 21 20" fill="none" xmlns="http://www.w3.org/2000/svg">
<path d="M20.1921 2.36839C19.4431 2.7761 18.6488 3.04388 17.8355 3.16287C18.6924 2.53171 19.3335 1.53879 19.6396 0.36909C18.8344 0.957725 17.9532 1.37203 17.0341 1.59398C16.2583 0.575551 15.1741 -0.00157833 14.0397 3.24209e-06C11.774 3.24209e-06 9.93644 2.26041 9.93644 5.04956C9.93644 5.44526 9.97333 5.82899 10.0423 6.19923C6.63075 5.98789 3.60843 3.97894 1.58405 0.923679C1.21956 1.69426 1.028 2.57017 1.02898 3.46176C1.02898 5.21346 1.75361 6.75961 2.85434 7.6648C2.20275 7.63944 1.5655 7.4229 0.995754 7.03305C0.995126 7.05426 0.995126 7.07547 0.995126 7.09553C0.995126 9.54264 2.40959 11.584 4.2873 12.0474C3.93489 12.1648 3.57139 12.2241 3.20631 12.2237C2.94116 12.2237 2.68384 12.1937 2.43373 12.1346C2.95621 14.1402 4.47065 15.6003 6.26687 15.6404C4.81333 17.0441 3.01839 17.8057 1.17064 17.8024C0.843618 17.8028 0.516868 17.779 0.192139 17.7315C2.06801 19.2154 4.25152 20.0029 6.48156 20C14.0297 20 18.1568 12.3063 18.1568 5.63424C18.1568 5.41594 18.1524 5.19689 18.1446 4.98091C18.9479 4.26677 19.6412 3.38207 20.1921 2.36839Z" fill="#38BDF8"/>
</svg>
